<svg id="plug" xmlns="http://www.w3.org/2000/svg" width="15.273" height="8.868" viewBox="0 0 15.273 8.868">
  <g id="plug-2" data-name="plug" transform="translate(15.273) rotate(90)" opacity="0.9">
    <path id="Path_11419" data-name="Path 11419" d="M4.434,0H3.941A3.946,3.946,0,0,0,0,3.941a.493.493,0,1,0,.985,0A2.959,2.959,0,0,1,3.941.985h.493a.493.493,0,1,0,0-.985Zm0,0" transform="translate(3.941 0)" fill="#757575"/>
    <path id="Path_11420" data-name="Path 11420" d="M8.376,7.883H6.9v3.449a.493.493,0,0,1-.985,0V7.883H2.956v3.449a.493.493,0,0,1-.985,0V7.883H.493A.493.493,0,0,1,0,7.39V4.434a4.434,4.434,0,0,1,8.868,0V7.39A.493.493,0,0,1,8.376,7.883ZM7.883,4.434a3.449,3.449,0,0,0-6.9,0V6.9h6.9Zm0,0" transform="translate(0 3.449)" fill="#757575"/>
  </g>
</svg>
