<svg xmlns="http://www.w3.org/2000/svg" width="17.281" height="17.28" viewBox="0 0 17.281 17.28">
  <g id="Icon" transform="translate(-1661.359 -242.36)">
    <g id="Icon-2" data-name="Icon" transform="translate(1661.36 242.36)">
      <path id="Path_150" data-name="Path 150" d="M8.64,17.28A8.614,8.614,0,0,1,.224,6.715.177.177,0,0,1,.229,6.7,8.658,8.658,0,0,1,6.693.229.374.374,0,0,1,6.751.215a8.425,8.425,0,0,1,3.779,0,.362.362,0,0,1,.057.015A8.658,8.658,0,0,1,17.051,6.7a.177.177,0,0,1,.005.02A8.614,8.614,0,0,1,8.64,17.28ZM16.254,10.8H12.377A4.345,4.345,0,0,1,10.8,12.375v3.878A7.941,7.941,0,0,0,16.254,10.8ZM8.64,5.04a3.6,3.6,0,0,0-1.661,6.791l0,0a3.574,3.574,0,0,0,3.316,0h0A3.6,3.6,0,0,0,8.64,5.04Zm0,11.52a7.909,7.909,0,0,0,1.44-.138V12.708a4.239,4.239,0,0,1-2.88,0v3.714A7.908,7.908,0,0,0,8.64,16.56Zm-2.16-.307V12.376A4.346,4.346,0,0,1,4.9,10.8H1.026A7.941,7.941,0,0,0,6.48,16.253ZM.72,8.64a7.916,7.916,0,0,0,.137,1.437H4.571a4.24,4.24,0,0,1,0-2.88H.858A7.9,7.9,0,0,0,.72,8.64Zm.307-2.162H4.906A4.348,4.348,0,0,1,6.48,4.9V1.027A7.941,7.941,0,0,0,1.027,6.478ZM8.64.72A7.909,7.909,0,0,0,7.2.858V4.572a4.239,4.239,0,0,1,2.88,0V.858A7.908,7.908,0,0,0,8.64.72Zm2.16.307V4.9a4.347,4.347,0,0,1,1.575,1.574h3.878A7.942,7.942,0,0,0,10.8,1.027ZM16.422,7.2H12.707a4.241,4.241,0,0,1,0,2.879h3.714a7.6,7.6,0,0,0,0-2.879Z" fill="#757575"/>
    </g>
    <path id="Color_Overlay" data-name="Color Overlay" d="M1661.359,251a8.651,8.651,0,0,1,.224-1.925c0-.006,0-.014.005-.02a8.658,8.658,0,0,1,6.464-6.466.4.4,0,0,1,.058-.015,8.441,8.441,0,0,1,3.779,0,.365.365,0,0,1,.056.015,8.657,8.657,0,0,1,6.465,6.466c0,.006,0,.014.005.02A8.637,8.637,0,1,1,1661.359,251Zm7.2,7.782a7.594,7.594,0,0,0,2.879,0v-3.714a4.238,4.238,0,0,1-2.879,0Zm3.6-4.047v3.878a7.943,7.943,0,0,0,5.453-5.456h-3.876A4.344,4.344,0,0,1,1672.16,254.735Zm-4.32,3.878v-3.877a4.357,4.357,0,0,1-1.578-1.579h-3.876A7.941,7.941,0,0,0,1667.84,258.613ZM1666.4,251a3.6,3.6,0,0,0,1.939,3.191l0,0a3.574,3.574,0,0,0,3.316,0l0,0A3.6,3.6,0,1,0,1666.4,251Zm7.919,0a4.3,4.3,0,0,1-.25,1.437h3.713a7.575,7.575,0,0,0,0-2.88h-3.714A4.3,4.3,0,0,1,1674.32,251Zm-12.24,0a7.882,7.882,0,0,0,.138,1.437h3.714a4.233,4.233,0,0,1,0-2.88h-3.714A7.866,7.866,0,0,0,1662.08,251Zm10.08-3.736a4.349,4.349,0,0,1,1.575,1.573h3.878a7.942,7.942,0,0,0-5.453-5.45Zm-9.772,1.573h3.878a4.353,4.353,0,0,1,1.574-1.573v-3.877A7.943,7.943,0,0,0,1662.387,248.837Zm9.052-1.905v-3.714a7.6,7.6,0,0,0-2.88,0v3.714a4.24,4.24,0,0,1,2.88,0Z" fill="#66a19c"/>
  </g>
</svg>
